<svg width="385" height="105" viewBox="0 0 385 105" fill="none" xmlns="http://www.w3.org/2000/svg">
<path d="M4.8 70.46V32.54L13.84 23.5H40.08L48.96 32.38V39.74H39.68V35.66L35.44 31.5H18.64L14.08 35.98V67.02L18.64 71.5H35.44L39.68 67.34V63.26H48.96V70.62L40.08 79.5H13.84L4.8 70.46ZM56.9969 39.66H65.3969V46.46L72.0369 39.66H83.0769V47.42H74.0369L66.0369 55.58V79.5H56.9969V39.66ZM125.506 39.66V88.94L117.266 97.1H96.9463L89.9063 90.14V84.86H98.9463V87.5L100.866 89.5H113.346L116.466 86.3V72.7L109.746 79.5H96.8663L88.7063 71.26V39.66H97.7463V68.62L100.866 71.74H108.146L116.466 63.1V39.66H125.506ZM135.903 39.66H144.303V45.9L150.623 39.66H165.903L173.903 47.66V71.5L165.903 79.5H150.543L144.943 74.78V96.46H135.903V39.66ZM161.663 71.74L164.863 68.62V50.54L161.663 47.42H152.063L144.943 54.54V65.66L151.663 71.74H161.663ZM185.909 71.58V47.34H178.709V39.66H186.069V26.7H194.949V39.66H207.189V47.34H194.949V68.7L198.069 71.82H207.189V79.5H193.829L185.909 71.58ZM212.838 71.5V47.66L220.758 39.66H242.838L250.838 47.66V71.5L242.838 79.5H220.758L212.838 71.5ZM238.598 71.9L241.798 68.7V50.46L238.598 47.26H225.078L221.878 50.46V68.7L225.078 71.9H238.598ZM287.797 23.5H297.077V79.5H287.797V23.5ZM307.847 70.46V32.54L316.887 23.5H344.567L353.607 32.54V70.46L344.567 79.5H316.887L307.847 70.46ZM339.767 71.5L344.327 67.02V35.98L339.767 31.5H321.687L317.127 35.98V67.02L321.687 71.5H339.767Z" fill="white"/>
<path d="M260.834 14.22H280.354V21.98H269.874V81.1H280.354V88.86H260.834V14.22ZM359.878 88.86V81.1H370.438V21.98H359.878V14.22H379.398V88.86H359.878Z" fill="#F1B900"/>
</svg>
