<svg width="447" height="104" viewBox="0 0 447 104" fill="none" xmlns="http://www.w3.org/2000/svg">
<path d="M5.21406 69.96V32.04L14.2541 23H40.4941L49.3741 31.88V39.24H40.0941V35.16L35.8541 31H19.0541L14.4941 35.48V66.52L19.0541 71H35.8541L40.0941 66.84V62.76H49.3741V70.12L40.4941 79H14.2541L5.21406 69.96ZM57.4109 39.16H65.8109V45.96L72.4509 39.16H83.4909V46.92H74.4509L66.4509 55.08V79H57.4109V39.16ZM125.92 39.16V88.44L117.68 96.6H97.3603L90.3203 89.64V84.36H99.3603V87L101.28 89H113.76L116.88 85.8V72.2L110.16 79H97.2803L89.1203 70.76V39.16H98.1603V68.12L101.28 71.24H108.56L116.88 62.6V39.16H125.92ZM136.317 39.16H144.717V45.4L151.037 39.16H166.317L174.317 47.16V71L166.317 79H150.957L145.357 74.28V95.96H136.317V39.16ZM162.077 71.24L165.277 68.12V50.04L162.077 46.92H152.477L145.357 54.04V65.16L152.077 71.24H162.077ZM186.323 71.08V46.84H179.123V39.16H186.483V26.2H195.363V39.16H207.603V46.84H195.363V68.2L198.483 71.32H207.603V79H194.243L186.323 71.08ZM241.386 69.96V32.04L250.426 23H278.106L287.146 32.04V69.96L278.106 79H250.426L241.386 69.96ZM273.306 71L277.866 66.52V35.48L273.306 31H255.226L250.666 35.48V66.52L255.226 71H273.306ZM297.577 23H306.057L332.457 63.72H332.617V23H341.497V79H333.017L306.617 38.36H306.457V79H297.577V23ZM353.133 23H362.413V79H353.133V23ZM388.623 50.12L369.983 23H380.383L393.823 42.76L407.263 23H417.663L399.103 50.44L418.463 79H408.063L393.823 57.88L379.583 79H369.183L388.623 50.12Z" fill="white"/>
<path d="M215.623 13.72H235.143V21.48H224.663V80.6H235.143V88.36H215.623V13.72ZM421.463 88.36V80.6H432.023V21.48H421.463V13.72H440.983V88.36H421.463Z" fill="#F1B900"/>
</svg>
