<svg width="385" height="104" viewBox="0 0 385 104" fill="none" xmlns="http://www.w3.org/2000/svg">
<path d="M4.8 69.96V32.04L13.84 23H40.08L48.96 31.88V39.24H39.68V35.16L35.44 31H18.64L14.08 35.48V66.52L18.64 71H35.44L39.68 66.84V62.76H48.96V70.12L40.08 79H13.84L4.8 69.96ZM56.9969 39.16H65.3969V45.96L72.0369 39.16H83.0769V46.92H74.0369L66.0369 55.08V79H56.9969V39.16ZM125.506 39.16V88.44L117.266 96.6H96.9463L89.9063 89.64V84.36H98.9463V87L100.866 89H113.346L116.466 85.8V72.2L109.746 79H96.8663L88.7063 70.76V39.16H97.7463V68.12L100.866 71.24H108.146L116.466 62.6V39.16H125.506ZM135.903 39.16H144.303V45.4L150.623 39.16H165.903L173.903 47.16V71L165.903 79H150.543L144.943 74.28V95.96H135.903V39.16ZM161.663 71.24L164.863 68.12V50.04L161.663 46.92H152.063L144.943 54.04V65.16L151.663 71.24H161.663ZM185.909 71.08V46.84H178.709V39.16H186.069V26.2H194.949V39.16H207.189V46.84H194.949V68.2L198.069 71.32H207.189V79H193.829L185.909 71.08ZM212.838 71V47.16L220.758 39.16H242.838L250.838 47.16V71L242.838 79H220.758L212.838 71ZM238.598 71.4L241.798 68.2V49.96L238.598 46.76H225.078L221.878 49.96V68.2L225.078 71.4H238.598ZM287.797 23H297.077V79H287.797V23ZM307.847 69.96V32.04L316.887 23H344.567L353.607 32.04V69.96L344.567 79H316.887L307.847 69.96ZM339.767 71L344.327 66.52V35.48L339.767 31H321.687L317.127 35.48V66.52L321.687 71H339.767Z" fill="white"/>
<path d="M260.834 13.72H280.354V21.48H269.874V80.6H280.354V88.36H260.834V13.72ZM359.878 88.36V80.6H370.438V21.48H359.878V13.72H379.398V88.36H359.878Z" fill="#EAB308"/>
</svg>
